<?xml version="1.0" encoding="UTF-8" standalone="no"?>
<!-- Created with Inkscape (http://www.inkscape.org/) -->

<svg
   width="210mm"
   height="297mm"
   viewBox="0 0 210 297"
   version="1.1"
   id="svg1"
   xml:space="preserve"
   inkscape:export-filename="schema-facial.svg"
   inkscape:export-xdpi="96"
   inkscape:export-ydpi="96"
   inkscape:version="1.4.2 (f4327f4, 2025-05-13)"
   sodipodi:docname="schema-facial.svg"
   xmlns:inkscape="http://www.inkscape.org/namespaces/inkscape"
   xmlns:sodipodi="http://sodipodi.sourceforge.net/DTD/sodipodi-0.dtd"
   xmlns="http://www.w3.org/2000/svg"
   xmlns:svg="http://www.w3.org/2000/svg"><sodipodi:namedview
     id="namedview1"
     pagecolor="#ffffff"
     bordercolor="#000000"
     borderopacity="0.25"
     inkscape:showpageshadow="2"
     inkscape:pageopacity="0.0"
     inkscape:pagecheckerboard="0"
     inkscape:deskcolor="#d1d1d1"
     inkscape:document-units="mm"
     inkscape:zoom="0.88889596"
     inkscape:cx="520.30836"
     inkscape:cy="541.68319"
     inkscape:window-width="1902"
     inkscape:window-height="991"
     inkscape:window-x="0"
     inkscape:window-y="0"
     inkscape:window-maximized="0"
     inkscape:current-layer="layer1"
     showguides="false"
     inkscape:export-bgcolor="#ffffffff"><inkscape:page
       x="0"
       y="0"
       width="210"
       height="297"
       id="page2"
       margin="0"
       bleed="0" /></sodipodi:namedview><defs
     id="defs1" /><g
     inkscape:label="Capa 1"
     inkscape:groupmode="layer"
     id="layer1"
     style="display:inline" /><g
     inkscape:groupmode="layer"
     id="layer3"
     inkscape:label="Capa 3"
     style="display:inline"><rect
       style="opacity:1;fill:#ffffff;fill-opacity:0;fill-rule:nonzero;stroke:#ffffff;stroke-width:0.264448;stroke-miterlimit:0;stroke-dasharray:none;stroke-dashoffset:0;stroke-opacity:1"
       id="rect95"
       width="210.14421"
       height="296.98471"
       x="-0.00027362639"
       y="0.074137934"
       ry="0.14841816" /></g><g
     inkscape:groupmode="layer"
     id="layer2"
     inkscape:label="Capa 2"
     style="display:inline"><path
       style="opacity:1;fill:#000000;fill-opacity:0;fill-rule:nonzero;stroke:#000000;stroke-width:0.754147;stroke-miterlimit:0;stroke-dasharray:none;stroke-dashoffset:0;stroke-opacity:1"
       d="m 116.55765,53.406748 c 0,0 5.24349,-38.90438 43.57095,-35.01396 38.32746,3.890451 44.19517,36.360637 41.44859,48.331239 -2.74659,11.970571 -16.60442,27.681951 -16.60442,27.681951 0,0 -4.49443,4.339343 -0.49938,10.025392 3.99504,5.68602 5.11867,16.30991 5.11867,16.30991 l -43.82066,16.60917 c 0,0 -5.11864,-12.12021 -7.61554,-13.018 -2.49692,-0.89778 -27.93987,2.1018 -26.21749,-7.03272 1.55835,-8.26466 0.88639,-6.59755 2.67355,-8.81471 1.76119,-2.18496 -0.31357,-3.50481 -1.11177,-6.58309 -0.24331,-1.10999 -0.60492,-2.418093 1.06004,-3.115639 0,0 -3.49566,-3.931421 0.87392,-5.427738 8.40257,-2.87739 -16.336887,-4.419444 -7.99009,-14.215063 5.99258,-7.032695 9.98762,-11.222428 8.98886,-16.758806 -0.99877,-5.536409 0.12477,-8.977936 0.12477,-8.977936 z"
       id="path15"
       sodipodi:nodetypes="csscsccsssccsssc" /><path
       style="display:inline;opacity:1;fill:#000000;fill-opacity:0;fill-rule:nonzero;stroke:#000000;stroke-width:0.754147;stroke-miterlimit:0;stroke-dasharray:none;stroke-dashoffset:0;stroke-opacity:1"
       d="m 155.38447,73.906363 c 0,0 7.36588,-15.112847 13.35844,-11.521679 5.99255,3.591169 4.48712,8.842565 0.37453,16.010663 -3.84584,6.70313 -4.27621,9.697322 -7.02689,9.250673 -0.48098,-0.0782 -0.82712,-1.102353 -1.83351,-2.663287 -0.75444,-1.17021 -2.52842,-2.368305 -3.21741,-2.485513 -1.23155,-0.209367 -1.70065,-0.364398 -2.49354,0.278844 -0.90571,0.734591 -1.74796,2.263372 -2.19835,4.715735 -1.75635,9.56354 4.16035,16.341131 -8.94838,25.169431 -13.10876,8.82829 -27.84048,12.26985 -30.83676,7.78087"
       id="path16"
       sodipodi:nodetypes="cssssssssc" /><path
       style="opacity:1;fill:#000000;fill-opacity:1;fill-rule:nonzero;stroke:#000000;stroke-width:0.754147;stroke-miterlimit:0;stroke-dasharray:none;stroke-dashoffset:0;stroke-opacity:1"
       d="m 155.53495,73.55717 c 0,0 3.94124,-1.275112 4.64245,0.927382 0,0.244261 1.05603,1.171923 0.77375,-0.898376 0,0 -2.27287,-3.709467 -4.40066,-1.506973 z"
       id="path66"
       sodipodi:nodetypes="ccccc" /><path
       style="opacity:1;fill:#000000;fill-opacity:0;fill-rule:nonzero;stroke:#000000;stroke-width:0.754147;stroke-miterlimit:0;stroke-dasharray:none;stroke-dashoffset:0;stroke-opacity:1"
       d="m 152.64351,86.572144 c 0,0 1.2994,-7.541064 9.26682,-2.37706 0,0 1.23101,1.02462 2.7014,-2.131178 0,0 6.39355,-11.176224 6.20984,-12.847481 -0.0276,-1.143603 -2.72198,-8.50521 -7.47506,-3.013322"
       id="path67"
       sodipodi:nodetypes="ccccc" /><path
       style="opacity:1;fill:#000000;fill-opacity:0;fill-rule:nonzero;stroke:#000000;stroke-width:0.754147;stroke-miterlimit:0;stroke-dasharray:none;stroke-dashoffset:0;stroke-opacity:1"
       d="m 167.14109,64.42844 c 0,0 -1.60796,1.782296 -1.72883,3.62251"
       id="path68" /><path
       style="opacity:1;fill:#000000;fill-opacity:0;fill-rule:nonzero;stroke:#000000;stroke-width:0.754147;stroke-miterlimit:0;stroke-dasharray:none;stroke-dashoffset:0;stroke-opacity:1"
       d="m 162.00295,68.949358 c 0,0 1.6321,-1.680853 3.33676,-0.796964 0,0 1.6563,1.782296 0.30226,3.955784"
       id="path69" /><path
       style="opacity:1;fill:#000000;fill-opacity:0;fill-rule:nonzero;stroke:#000000;stroke-width:0.754147;stroke-miterlimit:0;stroke-dasharray:none;stroke-dashoffset:0;stroke-opacity:1"
       d="m 114.68718,98.744417 c 0,0 3.89821,-0.08194 5.8815,1.311503"
       id="path70" /><path
       style="opacity:1;fill:#000000;fill-opacity:0;fill-rule:nonzero;stroke:#000000;stroke-width:0.754147;stroke-miterlimit:0;stroke-dasharray:none;stroke-dashoffset:0;stroke-opacity:1"
       d="m 116.02229,60.386011 c 0,0 7.40235,-3.202593 12.81856,4.332239 0,0 -7.83413,4.173158 -12.4766,2.318425"
       id="path71"
       sodipodi:nodetypes="ccc" /><ellipse
       style="opacity:1;fill:#000000;fill-opacity:1;fill-rule:nonzero;stroke:#000000;stroke-width:0.690769;stroke-miterlimit:0;stroke-dasharray:none;stroke-dashoffset:0;stroke-opacity:1"
       id="path72"
       cx="117.91858"
       cy="63.149689"
       rx="1.2770587"
       ry="3.2109559" /><path
       style="opacity:1;fill:#000000;fill-opacity:0;fill-rule:nonzero;stroke:#000000;stroke-width:0.754147;stroke-miterlimit:0;stroke-dasharray:none;stroke-dashoffset:0;stroke-opacity:1"
       d="m 117.42275,49.686502 c 0,0 8.27518,-0.327852 13.54119,6.352534"
       id="path73" /><text
       xml:space="preserve"
       style="font-size:6.15565px;text-align:start;writing-mode:lr-tb;direction:ltr;text-anchor:start;opacity:1;fill:#000000;fill-opacity:1;fill-rule:nonzero;stroke:#000000;stroke-width:0;stroke-miterlimit:0;stroke-dasharray:none;stroke-dashoffset:0;stroke-opacity:1"
       x="170.23073"
       y="101.38467"
       id="text73"
       transform="scale(0.86970183,1.1498194)"><tspan
         sodipodi:role="line"
         id="tspan73"
         style="fill:#000000;fill-opacity:1;stroke:#000000;stroke-width:0;stroke-dasharray:none;stroke-opacity:1"
         x="170.23073"
         y="101.38467">2.5</tspan></text><path
       style="opacity:1;fill:#000000;fill-opacity:0;fill-rule:nonzero;stroke:#000000;stroke-width:0.754147;stroke-miterlimit:0;stroke-dasharray:none;stroke-dashoffset:0;stroke-opacity:1"
       d="m 24.385667,115.49138 c 0,0 -3.094981,19.2428 -0.580306,20.63384 2.514649,1.39104 16.442008,6.02786 46.231069,1.15921 0,0 1.354063,-6.72338 -1.740891,-19.24279 0,0 10.638952,-6.72338 11.412684,-16.69254 0,0 6.522225,-36.231682 6.77024,-40.108455 0,0 3.753244,-38.261013 -18.376377,-49.845783 0,0 -0.501359,-0.293487 -1.334073,-0.59143 C 60.34501,8.5038884 31.707488,-0.07519167 19.54977,23.218753 c 0,0 -11.6882537,18.597244 -7.495622,45.324895 0,0 3.433484,29.675608 5.754705,35.819402 2.321222,6.14376 6.576814,11.12833 6.576814,11.12833 z"
       id="path79"
       sodipodi:nodetypes="cscccccsccsc" /><path
       style="opacity:1;fill:#000000;fill-opacity:0;fill-rule:nonzero;stroke:#000000;stroke-width:0.754147;stroke-miterlimit:0;stroke-dasharray:none;stroke-dashoffset:0;stroke-opacity:1"
       d="m 86.373782,63.088306 c 0,0 6.018318,-0.491825 3.898243,15.000157 -2.120102,15.49195 -8.890679,13.278832 -8.890679,13.278832"
       id="path80" /><path
       style="opacity:1;fill:#000000;fill-opacity:0;fill-rule:nonzero;stroke:#000000;stroke-width:0.754147;stroke-miterlimit:0;stroke-dasharray:none;stroke-dashoffset:0;stroke-opacity:1"
       d="m 11.555362,63.170246 c 0,0 -6.7705776,0.573795 -5.2660047,12.377184 1.5045728,11.803421 8.8222867,15.901836 8.8222867,15.901836"
       id="path81" /><path
       style="opacity:1;fill:#000000;fill-opacity:0;fill-rule:nonzero;stroke:#000000;stroke-width:0.754147;stroke-miterlimit:0;stroke-dasharray:none;stroke-dashoffset:0;stroke-opacity:1"
       d="m 44.587651,64.317805 c 0,0 0.683868,7.868947 -0.410327,11.72145 -0.249809,1.397273 -6.294797,13.008151 -3.145955,14.631304"
       id="path82"
       sodipodi:nodetypes="ccc" /><path
       style="opacity:1;fill:#000000;fill-opacity:0;fill-rule:nonzero;stroke:#000000;stroke-width:0.754147;stroke-miterlimit:0;stroke-dasharray:none;stroke-dashoffset:0;stroke-opacity:1"
       d="m 53.375729,67.227691 c 0,0 -1.607174,6.967268 0.88907,10.983712 2.496219,4.016445 4.82147,11.311596 2.188467,12.049302"
       id="path83" /><path
       style="opacity:1;fill:#000000;fill-opacity:0;fill-rule:nonzero;stroke:#000000;stroke-width:0.754147;stroke-miterlimit:0;stroke-dasharray:none;stroke-dashoffset:0;stroke-opacity:1"
       d="m 45.271545,92.145971 c 0,0 -0.171045,3.893503 1.504573,4.631209"
       id="path84" /><path
       style="display:inline;fill:#000000;fill-opacity:0;fill-rule:nonzero;stroke:#000000;stroke-width:0.701057;stroke-miterlimit:0;stroke-dasharray:none;stroke-dashoffset:0;stroke-opacity:1"
       d="m 51.62509,91.998666 c 0,0 0.14687,3.922167 -1.290689,4.665294"
       id="path84-7" /><ellipse
       style="opacity:1;fill:#000000;fill-opacity:0;fill-rule:nonzero;stroke:#000000;stroke-width:0.754147;stroke-miterlimit:0;stroke-dasharray:none;stroke-dashoffset:0;stroke-opacity:1"
       id="path86"
       cx="45.767361"
       cy="88.969711"
       rx="1.8636218"
       ry="0.79918897" /><ellipse
       style="display:inline;fill:#000000;fill-opacity:0;fill-rule:nonzero;stroke:#000000;stroke-width:0.754147;stroke-miterlimit:0;stroke-dasharray:none;stroke-dashoffset:0;stroke-opacity:1"
       id="path86-5"
       cx="51.780342"
       cy="88.958015"
       rx="1.8636218"
       ry="0.79918897" /><path
       style="opacity:1;fill:#000000;fill-opacity:1;fill-rule:nonzero;stroke:#000000;stroke-width:0.754147;stroke-miterlimit:0;stroke-dasharray:none;stroke-dashoffset:0;stroke-opacity:1"
       d="m 60.07794,58.621069 c 9.882325,-8.442742 20.482727,-3.524651 20.482727,-3.524651 -8.206759,-9.098446 -23.146975,1.861152 -23.628656,2.704943 0,0 -1.963795,1.854733 1.890282,1.44974 0.35987,-0.0377 0.616204,-0.19005 1.255647,-0.630032 z"
       id="path88"
       sodipodi:nodetypes="cccsc" /><path
       style="opacity:1;fill:#000000;fill-opacity:0;fill-rule:nonzero;stroke:#000000;stroke-width:0.754147;stroke-miterlimit:0;stroke-dasharray:none;stroke-dashoffset:0;stroke-opacity:1"
       d="m 59.565013,67.883426 c 0,0 6.120867,-11.188624 16.413544,-1.065558 0,0 -4.002533,2.011104 -7.90075,2.216015 0,0 -5.469439,0.693808 -8.512794,-1.150457 z"
       id="path89"
       sodipodi:nodetypes="cccc" /><ellipse
       style="opacity:1;fill:#000000;fill-opacity:1;fill-rule:nonzero;stroke:#000000;stroke-width:0.754147;stroke-miterlimit:0;stroke-dasharray:none;stroke-dashoffset:0;stroke-opacity:1"
       id="path90"
       cx="67.446175"
       cy="65.77684"
       rx="3.5181088"
       ry="3.173321" /><path
       style="opacity:1;fill:#000000;fill-opacity:0;fill-rule:nonzero;stroke:#000000;stroke-width:0.754147;stroke-miterlimit:0;stroke-dasharray:none;stroke-dashoffset:0;stroke-opacity:1"
       d="m 60.929813,62.893364 c 0,0 6.359185,-7.216047 16.103504,-0.173849"
       id="path91" /><path
       style="display:inline;fill:#000000;fill-opacity:1;fill-rule:nonzero;stroke:#000000;stroke-width:0.755111;stroke-miterlimit:0;stroke-dasharray:none;stroke-dashoffset:0;stroke-opacity:1"
       d="M 38.802947,59.208573 C 28.886232,50.77362 18.248891,55.687194 18.248891,55.687194 c 8.235327,-9.090035 23.227559,1.859438 23.71093,2.70245 0,0 1.970632,1.85302 -1.896859,1.4484 -0.361352,-0.0377 -0.618336,-0.19005 -1.260015,-0.629471 z"
       id="path88-5"
       sodipodi:nodetypes="cccsc" /><path
       style="display:inline;fill:#000000;fill-opacity:0;fill-rule:nonzero;stroke:#000000;stroke-width:0.755111;stroke-miterlimit:0;stroke-dasharray:none;stroke-dashoffset:0;stroke-opacity:1"
       d="m 39.317668,68.462393 c 0,0 -6.142182,-11.178311 -16.470731,-1.064561 0,0 4.016492,2.009266 7.928303,2.213991 0,0 5.488494,0.693153 8.542428,-1.14943 z"
       id="path89-4"
       sodipodi:nodetypes="cccc" /><ellipse
       style="display:inline;fill:#000000;fill-opacity:1;fill-rule:nonzero;stroke:#000000;stroke-width:0.755111;stroke-miterlimit:0;stroke-dasharray:none;stroke-dashoffset:0;stroke-opacity:1"
       id="path90-0"
       cx="-31.408998"
       cy="66.357727"
       rx="3.5303624"
       ry="3.1703925"
       transform="scale(-1,1)" /><path
       style="display:inline;fill:#000000;fill-opacity:0;fill-rule:nonzero;stroke:#000000;stroke-width:0.755111;stroke-miterlimit:0;stroke-dasharray:none;stroke-dashoffset:0;stroke-opacity:1"
       d="m 37.948112,63.476943 c 0,0 -6.381359,-7.20938 -16.159627,-0.173849"
       id="path91-2" /><ellipse
       style="opacity:1;fill:#ffffff;fill-opacity:1;fill-rule:nonzero;stroke:#000000;stroke-width:1.34545;stroke-miterlimit:0;stroke-dasharray:none;stroke-dashoffset:0;stroke-opacity:1"
       id="path92"
       cx="67.522842"
       cy="65.827087"
       rx="1.5428387"
       ry="1.5720897" /><ellipse
       style="display:inline;fill:#ffffff;fill-opacity:1;fill-rule:nonzero;stroke:#000000;stroke-width:1.34545;stroke-miterlimit:0;stroke-dasharray:none;stroke-dashoffset:0;stroke-opacity:1"
       id="path92-1"
       cx="31.506693"
       cy="66.481621"
       rx="1.5428387"
       ry="1.5720897" /><path
       style="opacity:1;fill:#000000;fill-opacity:1;fill-rule:nonzero;stroke:#ffffff;stroke-width:0.754147;stroke-miterlimit:0;stroke-dasharray:none;stroke-dashoffset:0;stroke-opacity:1"
       d="m 73.037777,50.690621 c 0,0 3.279022,0.155467 5.299148,1.447122 1.718275,1.098646 2.087894,2.591474 3.266675,4.126705"
       id="path93"
       sodipodi:nodetypes="csc" /><path
       style="display:inline;fill:#000000;fill-opacity:1;fill-rule:nonzero;stroke:#ffffff;stroke-width:0.756463;stroke-miterlimit:0;stroke-dasharray:none;stroke-dashoffset:0;stroke-opacity:1"
       d="m 25.267589,51.366327 c 0,0 -3.235248,0.158582 -5.228391,1.475723 -1.695296,1.120361 -2.096264,2.758593 -3.259318,4.32417"
       id="path93-0"
       sodipodi:nodetypes="csc" /><path
       style="display:inline;opacity:1;fill:#000000;fill-opacity:0;fill-rule:nonzero;stroke:#000000;stroke-width:0.754147;stroke-miterlimit:0;stroke-dasharray:none;stroke-dashoffset:0;stroke-opacity:1"
       d="m 38.19319,101.65427 c 0,0 8.617111,-6.14759 20.790504,-0.0819 -0.994895,1.11295 -1.839489,1.77292 -2.576594,2.36672 -2.130889,1.71659 -3.483107,2.09261 -7.74304,2.26119 -4.105056,0.11309 -11.026455,-2.58842 -10.47087,-4.54597 z"
       id="path87"
       sodipodi:nodetypes="ccscc" /><path
       style="opacity:1;fill:#000000;fill-opacity:1;fill-rule:nonzero;stroke:#000000;stroke-width:0.754147;stroke-miterlimit:0;stroke-dasharray:none;stroke-dashoffset:0;stroke-opacity:1"
       d="m 38.240474,101.84177 c 0,0 9.164014,1.42001 20.455796,-0.14488"
       id="path94" /><path
       style="opacity:1;fill:#000000;fill-opacity:0;fill-rule:nonzero;stroke:#000000;stroke-width:0.754147;stroke-miterlimit:0;stroke-dasharray:none;stroke-dashoffset:0;stroke-opacity:1"
       d="m 34.534333,113.00687 c 0,0 0.337359,1.73378 2.043911,2.81941 3.604216,2.29278 10.841424,5.28579 24.311069,1.10089 1.151409,-0.35773 3.469901,-1.24536 4.146881,-4.24819"
       id="path95"
       sodipodi:nodetypes="cssc" /><ellipse
       style="opacity:1;fill:#ffffff;fill-opacity:0;fill-rule:nonzero;stroke:#000000;stroke-width:0.754147;stroke-miterlimit:0;stroke-dasharray:none;stroke-dashoffset:0;stroke-opacity:1"
       id="path96"
       cx="117.48858"
       cy="63.385155"
       rx="0.49567854"
       ry="1.0722636" /><ellipse
       style="opacity:1;fill:#ffffff;fill-opacity:1;fill-rule:nonzero;stroke:#000000;stroke-width:0.754147;stroke-miterlimit:0;stroke-dasharray:none;stroke-dashoffset:0;stroke-opacity:1"
       id="path97"
       cx="117.50072"
       cy="63.356201"
       rx="0.822101"
       ry="1.5069652" /><path
       style="display:inline;opacity:1;fill:#ffffff;fill-opacity:0;fill-rule:nonzero;stroke:#000000;stroke-width:0.754147;stroke-miterlimit:0;stroke-dasharray:none;stroke-dashoffset:0;stroke-opacity:1"
       d="m 123.74581,121.64664 c -6.10582,0.97178 -11.32314,3.32743 -3.76398,5.69359 4.8425,1.51576 9.24545,1.24626 9.24545,1.24626 19.47338,0.30869 25.33116,-5.49756 25.33116,-5.49756 15.11193,-13.46402 7.65473,-34.803843 6.50875,-36.371881 -1.3389,-3.045444 -4.57761,-5.061439 -6.36139,-3.754954 -2.09681,1.535761 -2.66636,6.729768 -2.64556,6.723568 -0.42051,2.610952 0.58511,6.437598 0.13113,10.658447 -0.65827,6.12018 -4.62736,12.76283 -28.44556,21.30253 z"
       id="path65"
       sodipodi:nodetypes="cscccscsc"
       inkscape:label="papada" /></g></svg>
